<svg width="136" height="40" viewBox="0 0 136 40" fill="none" xmlns="http://www.w3.org/2000/svg">
<mask id="path-1-outside-1_1_3" maskUnits="userSpaceOnUse" x="-1" y="-1" width="138" height="42" fill="black">
<rect fill="white" x="-1" y="-1" width="138" height="42"/>
<path d="M20.728 33.72L17.608 29.04C16.728 29.2 15.8346 29.28 14.928 29.28C12.288 29.28 9.8613 28.6667 7.64797 27.44C5.43464 26.1867 3.67464 24.4667 2.36797 22.28C1.08797 20.0667 0.447969 17.5733 0.447969 14.8C0.447969 12.0267 1.08797 9.54667 2.36797 7.36C3.67464 5.14667 5.43464 3.42667 7.64797 2.2C9.8613 0.973333 12.288 0.359999 14.928 0.359999C17.5946 0.359999 20.0213 0.973333 22.208 2.2C24.4213 3.42667 26.168 5.14667 27.448 7.36C28.728 9.54667 29.368 12.0267 29.368 14.8C29.368 17.12 28.9013 19.2667 27.968 21.24C27.0346 23.1867 25.7546 24.8133 24.128 26.12L30.088 33.72H20.728ZM8.44797 14.8C8.44797 17.0133 9.0213 18.7733 10.168 20.08C11.3146 21.36 12.9013 22 14.928 22C16.928 22 18.5013 21.3467 19.648 20.04C20.8213 18.7333 21.408 16.9867 21.408 14.8C21.408 12.56 20.8213 10.8 19.648 9.52C18.5013 8.21333 16.928 7.56 14.928 7.56C12.9013 7.56 11.3146 8.21333 10.168 9.52C9.0213 10.8 8.44797 12.56 8.44797 14.8ZM66.0914 6.56L60.3714 29H51.5714L48.4514 15.4L45.2114 29H36.4514L30.7714 6.56H38.5714L41.0914 21.44L44.4114 6.56H52.8114L56.2514 21.48L58.7314 6.56H66.0914ZM89.762 17.52C89.762 18.1333 89.722 18.7467 89.642 19.36H74.802C74.882 20.5867 75.2154 21.5067 75.802 22.12C76.4154 22.7067 77.1887 23 78.122 23C79.4287 23 80.362 22.4133 80.922 21.24H89.282C88.9354 22.7867 88.2554 24.1733 87.242 25.4C86.2554 26.6 85.002 27.5467 83.482 28.24C81.962 28.9333 80.282 29.28 78.442 29.28C76.2287 29.28 74.2554 28.8133 72.522 27.88C70.8154 26.9467 69.4687 25.6133 68.482 23.88C67.522 22.1467 67.042 20.1067 67.042 17.76C67.042 15.4133 67.522 13.3867 68.482 11.68C69.442 9.94667 70.7754 8.61333 72.482 7.68C74.2154 6.74667 76.202 6.28 78.442 6.28C80.6554 6.28 82.6154 6.73333 84.322 7.64C86.0287 8.54667 87.362 9.85333 88.322 11.56C89.282 13.24 89.762 15.2267 89.762 17.52ZM81.762 15.56C81.762 14.6 81.442 13.8533 80.802 13.32C80.162 12.76 79.362 12.48 78.402 12.48C77.442 12.48 76.6554 12.7467 76.042 13.28C75.4287 13.7867 75.0287 14.5467 74.842 15.56H81.762ZM100.81 10.52C101.69 9.24 102.757 8.22666 104.01 7.48C105.264 6.73333 106.61 6.36 108.05 6.36V14.72H105.85C104.144 14.72 102.877 15.0533 102.05 15.72C101.224 16.3867 100.81 17.5467 100.81 19.2V29H92.9705V6.56H100.81V10.52ZM135.021 6.56L120.781 39.68H112.261L117.621 28.04L108.421 6.56H117.141L121.861 19.28L126.421 6.56H135.021Z"/>
</mask>
<path d="M20.728 33.72L17.608 29.04C16.728 29.2 15.8346 29.28 14.928 29.28C12.288 29.28 9.8613 28.6667 7.64797 27.44C5.43464 26.1867 3.67464 24.4667 2.36797 22.28C1.08797 20.0667 0.447969 17.5733 0.447969 14.8C0.447969 12.0267 1.08797 9.54667 2.36797 7.36C3.67464 5.14667 5.43464 3.42667 7.64797 2.2C9.8613 0.973333 12.288 0.359999 14.928 0.359999C17.5946 0.359999 20.0213 0.973333 22.208 2.2C24.4213 3.42667 26.168 5.14667 27.448 7.36C28.728 9.54667 29.368 12.0267 29.368 14.8C29.368 17.12 28.9013 19.2667 27.968 21.24C27.0346 23.1867 25.7546 24.8133 24.128 26.12L30.088 33.72H20.728ZM8.44797 14.8C8.44797 17.0133 9.0213 18.7733 10.168 20.08C11.3146 21.36 12.9013 22 14.928 22C16.928 22 18.5013 21.3467 19.648 20.04C20.8213 18.7333 21.408 16.9867 21.408 14.8C21.408 12.56 20.8213 10.8 19.648 9.52C18.5013 8.21333 16.928 7.56 14.928 7.56C12.9013 7.56 11.3146 8.21333 10.168 9.52C9.0213 10.8 8.44797 12.56 8.44797 14.8ZM66.0914 6.56L60.3714 29H51.5714L48.4514 15.4L45.2114 29H36.4514L30.7714 6.56H38.5714L41.0914 21.44L44.4114 6.56H52.8114L56.2514 21.48L58.7314 6.56H66.0914ZM89.762 17.52C89.762 18.1333 89.722 18.7467 89.642 19.36H74.802C74.882 20.5867 75.2154 21.5067 75.802 22.12C76.4154 22.7067 77.1887 23 78.122 23C79.4287 23 80.362 22.4133 80.922 21.24H89.282C88.9354 22.7867 88.2554 24.1733 87.242 25.4C86.2554 26.6 85.002 27.5467 83.482 28.24C81.962 28.9333 80.282 29.28 78.442 29.28C76.2287 29.28 74.2554 28.8133 72.522 27.88C70.8154 26.9467 69.4687 25.6133 68.482 23.88C67.522 22.1467 67.042 20.1067 67.042 17.76C67.042 15.4133 67.522 13.3867 68.482 11.68C69.442 9.94667 70.7754 8.61333 72.482 7.68C74.2154 6.74667 76.202 6.28 78.442 6.28C80.6554 6.28 82.6154 6.73333 84.322 7.64C86.0287 8.54667 87.362 9.85333 88.322 11.56C89.282 13.24 89.762 15.2267 89.762 17.52ZM81.762 15.56C81.762 14.6 81.442 13.8533 80.802 13.32C80.162 12.76 79.362 12.48 78.402 12.48C77.442 12.48 76.6554 12.7467 76.042 13.28C75.4287 13.7867 75.0287 14.5467 74.842 15.56H81.762ZM100.81 10.52C101.69 9.24 102.757 8.22666 104.01 7.48C105.264 6.73333 106.61 6.36 108.05 6.36V14.72H105.85C104.144 14.72 102.877 15.0533 102.05 15.72C101.224 16.3867 100.81 17.5467 100.81 19.2V29H92.9705V6.56H100.81V10.52ZM135.021 6.56L120.781 39.68H112.261L117.621 28.04L108.421 6.56H117.141L121.861 19.28L126.421 6.56H135.021Z" fill="white"/>
<path d="M20.728 33.72L19.8959 34.2747L20.1928 34.72H20.728V33.72ZM17.608 29.04L18.44 28.4853L18.0755 27.9386L17.4291 28.0561L17.608 29.04ZM7.64797 27.44L7.1552 28.3102L7.16322 28.3147L7.64797 27.44ZM2.36797 22.28L1.5023 22.7806L1.50589 22.7868L1.50955 22.793L2.36797 22.28ZM2.36797 7.36L1.50683 6.85162L1.50495 6.85482L2.36797 7.36ZM22.208 2.2L21.7187 3.07215L21.7232 3.07465L22.208 2.2ZM27.448 7.36L26.5823 7.86063L26.585 7.86518L27.448 7.36ZM27.968 21.24L28.8697 21.6723L28.872 21.6676L27.968 21.24ZM24.128 26.12L23.5017 25.3404L22.7312 25.9593L23.3411 26.7371L24.128 26.12ZM30.088 33.72V34.72H32.143L30.8749 33.1029L30.088 33.72ZM10.168 20.08L9.4163 20.7396L9.42313 20.7472L10.168 20.08ZM19.648 20.04L18.9039 19.3718L18.8963 19.3804L19.648 20.04ZM19.648 9.52L18.8963 10.1796L18.9035 10.1877L18.9108 10.1957L19.648 9.52ZM10.168 9.52L10.9128 10.1873L10.9196 10.1796L10.168 9.52ZM21.56 33.1653L18.44 28.4853L16.7759 29.5947L19.8959 34.2747L21.56 33.1653ZM17.4291 28.0561C16.6089 28.2053 15.7755 28.28 14.928 28.28V30.28C15.8938 30.28 16.847 30.1947 17.7869 30.0239L17.4291 28.0561ZM14.928 28.28C12.4499 28.28 10.1912 27.7062 8.13272 26.5653L7.16322 28.3147C9.53142 29.6271 12.126 30.28 14.928 30.28V28.28ZM8.14072 26.5698C6.0784 25.402 4.44431 23.8052 3.22638 21.767L1.50955 22.793C2.90496 25.1281 4.79087 26.9713 7.15522 28.3102L8.14072 26.5698ZM3.23363 21.7794C2.04901 19.731 1.44797 17.4129 1.44797 14.8H-0.552031C-0.552031 17.7338 0.126924 20.4024 1.5023 22.7806L3.23363 21.7794ZM1.44797 14.8C1.44797 12.1869 2.04904 9.88434 3.23098 7.86518L1.50495 6.85482C0.126901 9.20899 -0.552031 11.8664 -0.552031 14.8H1.44797ZM3.2291 7.86838C4.44668 5.80596 6.07779 4.21353 8.13272 3.07465L7.16322 1.32535C4.79148 2.6398 2.9026 4.48737 1.50684 6.85162L3.2291 7.86838ZM8.13272 3.07465C10.1912 1.93381 12.4499 1.36 14.928 1.36V-0.640001C12.126 -0.640001 9.53142 0.0128504 7.16322 1.32535L8.13272 3.07465ZM14.928 1.36C17.4346 1.36 19.691 1.93465 21.7187 3.07214L22.6972 1.32786C20.3516 0.0120134 17.7547 -0.640001 14.928 -0.640001V1.36ZM21.7232 3.07465C23.7763 4.21251 25.392 5.80246 26.5823 7.86062L28.3136 6.85937C26.9439 4.49087 25.0663 2.64082 22.6927 1.32535L21.7232 3.07465ZM26.585 7.86518C27.7669 9.88434 28.368 12.1869 28.368 14.8H30.368C30.368 11.8664 29.689 9.20899 28.311 6.85482L26.585 7.86518ZM28.368 14.8C28.368 16.9816 27.9302 18.9811 27.064 20.8124L28.872 21.6676C29.8724 19.5522 30.368 17.2584 30.368 14.8H28.368ZM27.0663 20.8077C26.1953 22.6242 25.0076 24.1307 23.5017 25.3404L24.7542 26.8996C26.5016 25.496 27.874 23.7491 28.8697 21.6723L27.0663 20.8077ZM23.3411 26.7371L29.3011 34.3371L30.8749 33.1029L24.9149 25.5029L23.3411 26.7371ZM30.088 32.72H20.728V34.72H30.088V32.72ZM7.44797 14.8C7.44797 17.1878 8.06965 19.205 9.41634 20.7396L10.9196 19.4204C9.97295 18.3417 9.44797 16.8389 9.44797 14.8H7.44797ZM9.42313 20.7472C10.7938 22.2773 12.6729 23 14.928 23V21C13.1297 21 11.8355 20.4427 10.9128 19.4128L9.42313 20.7472ZM14.928 23C17.1679 23 19.0336 22.2562 20.3996 20.6996L18.8963 19.3804C17.9691 20.4371 16.6881 21 14.928 21V23ZM20.392 20.7081C21.7678 19.176 22.408 17.1704 22.408 14.8H20.408C20.408 16.8029 19.8748 18.2907 18.9039 19.3719L20.392 20.7081ZM22.408 14.8C22.408 12.3847 21.7721 10.3573 20.3851 8.84427L18.9108 10.1957C19.8705 11.2427 20.408 12.7353 20.408 14.8H22.408ZM20.3996 8.86041C19.0336 7.30376 17.1679 6.56 14.928 6.56V8.56C16.6881 8.56 17.9691 9.12291 18.8963 10.1796L20.3996 8.86041ZM14.928 6.56C12.6661 6.56 10.785 7.30072 9.41634 8.86041L10.9196 10.1796C11.8442 9.12594 13.1365 8.56 14.928 8.56V6.56ZM9.42313 8.85275C8.06739 10.3661 7.44797 12.3903 7.44797 14.8H9.44797C9.44797 12.7297 9.97522 11.2339 10.9128 10.1872L9.42313 8.85275ZM66.0914 6.56L67.0604 6.807L67.3783 5.56H66.0914V6.56ZM60.3714 29V30H61.1485L61.3404 29.247L60.3714 29ZM51.5714 29L50.5967 29.2236L50.7748 30H51.5714V29ZM48.4514 15.4L49.4261 15.1764L47.4786 15.1683L48.4514 15.4ZM45.2114 29V30H46.0012L46.1842 29.2317L45.2114 29ZM36.4514 29L35.482 29.2454L35.673 30H36.4514V29ZM30.7714 6.56V5.56H29.4867L29.802 6.80538L30.7714 6.56ZM38.5714 6.56L39.5574 6.39302L39.4163 5.56H38.5714V6.56ZM41.0914 21.44L40.1054 21.607L42.0674 21.6578L41.0914 21.44ZM44.4114 6.56V5.56H43.6099L43.4354 6.34223L44.4114 6.56ZM52.8114 6.56L53.7858 6.33533L53.6071 5.56H52.8114V6.56ZM56.2514 21.48L55.277 21.7047L57.2379 21.644L56.2514 21.48ZM58.7314 6.56V5.56H57.8839L57.7449 6.39603L58.7314 6.56ZM65.1224 6.31299L59.4024 28.753L61.3404 29.247L67.0604 6.807L65.1224 6.31299ZM60.3714 28H51.5714V30H60.3714V28ZM52.5461 28.7764L49.4261 15.1764L47.4767 15.6236L50.5967 29.2236L52.5461 28.7764ZM47.4786 15.1683L44.2386 28.7683L46.1842 29.2317L49.4242 15.6317L47.4786 15.1683ZM45.2114 28H36.4514V30H45.2114V28ZM37.4208 28.7546L31.7408 6.31462L29.802 6.80538L35.482 29.2454L37.4208 28.7546ZM30.7714 7.56H38.5714V5.56H30.7714V7.56ZM37.5854 6.72698L40.1054 21.607L42.0774 21.273L39.5574 6.39302L37.5854 6.72698ZM42.0674 21.6578L45.3874 6.77776L43.4354 6.34223L40.1154 21.2222L42.0674 21.6578ZM44.4114 7.56H52.8114V5.56H44.4114V7.56ZM51.837 6.78467L55.277 21.7047L57.2258 21.2553L53.7858 6.33533L51.837 6.78467ZM57.2379 21.644L59.7179 6.72397L57.7449 6.39603L55.2649 21.316L57.2379 21.644ZM58.7314 7.56H66.0914V5.56H58.7314V7.56ZM89.642 19.36V20.36H90.5201L90.6336 19.4893L89.642 19.36ZM74.802 19.36V18.36H73.7347L73.8042 19.4251L74.802 19.36ZM75.802 22.12L75.0794 22.8112L75.0948 22.8273L75.1108 22.8426L75.802 22.12ZM80.922 21.24V20.24H80.2912L80.0196 20.8093L80.922 21.24ZM89.282 21.24L90.2578 21.4587L90.531 20.24H89.282V21.24ZM87.242 25.4L86.4711 24.7631L86.4696 24.7649L87.242 25.4ZM83.482 28.24L83.897 29.1498L83.897 29.1498L83.482 28.24ZM72.522 27.88L72.0422 28.7574L72.0479 28.7605L72.522 27.88ZM68.482 23.88L67.6072 24.3645L67.613 24.3747L68.482 23.88ZM68.482 11.68L69.3536 12.1703L69.3568 12.1645L68.482 11.68ZM72.482 7.68L72.0079 6.79951L72.0022 6.80263L72.482 7.68ZM84.322 7.64L84.7912 6.75688L84.7912 6.75688L84.322 7.64ZM88.322 11.56L87.4504 12.0503L87.4538 12.0561L88.322 11.56ZM81.762 15.56V16.56H82.762V15.56H81.762ZM80.802 13.32L80.1435 14.0726L80.1526 14.0805L80.1618 14.0882L80.802 13.32ZM76.042 13.28L76.6789 14.051L76.6887 14.0429L76.6982 14.0346L76.042 13.28ZM74.842 15.56L73.8586 15.3788L73.641 16.56H74.842V15.56ZM88.762 17.52C88.762 18.0897 88.7249 18.6599 88.6504 19.2307L90.6336 19.4893C90.7192 18.8335 90.762 18.1769 90.762 17.52H88.762ZM89.642 18.36H74.802V20.36H89.642V18.36ZM73.8042 19.4251C73.8927 20.7836 74.271 21.9661 75.0794 22.8112L76.5247 21.4288C76.1597 21.0473 75.8713 20.3898 75.7999 19.2949L73.8042 19.4251ZM75.1108 22.8426C75.9295 23.6258 76.9592 24 78.122 24V22C77.4182 22 76.9012 21.7876 76.4933 21.3974L75.1108 22.8426ZM78.122 24C78.9283 24 79.6806 23.8174 80.3342 23.4066C80.9881 22.9956 81.4778 22.3972 81.8245 21.6707L80.0196 20.8093C79.8063 21.2561 79.5493 21.5377 79.2699 21.7134C78.9901 21.8892 78.6224 22 78.122 22V24ZM80.922 22.24H89.282V20.24H80.922V22.24ZM88.3062 21.0213C87.9941 22.4138 87.3846 23.6573 86.4711 24.7631L88.013 26.0369C89.1262 24.6894 89.8766 23.1596 90.2578 21.4587L88.3062 21.0213ZM86.4696 24.7649C85.5868 25.8386 84.4592 26.6952 83.067 27.3302L83.897 29.1498C85.5449 28.3982 86.9239 27.3614 88.0145 26.0351L86.4696 24.7649ZM83.067 27.3302C81.69 27.9583 80.1535 28.28 78.442 28.28V30.28C80.4106 30.28 82.2341 29.9084 83.897 29.1498L83.067 27.3302ZM78.442 28.28C76.3733 28.28 74.5664 27.8451 72.9961 26.9995L72.0479 28.7605C73.9443 29.7816 76.0841 30.28 78.442 30.28V28.28ZM73.0018 27.0026C71.4622 26.1606 70.2485 24.9617 69.3511 23.3853L67.613 24.3747C68.6889 26.2649 70.1685 27.7327 72.0422 28.7574L73.0018 27.0026ZM69.3568 23.3955C68.4929 21.8356 68.042 19.9685 68.042 17.76H66.042C66.042 20.2449 66.5512 22.4577 67.6072 24.3645L69.3568 23.3955ZM68.042 17.76C68.042 15.551 68.4931 13.7001 69.3536 12.1703L67.6105 11.1897C66.551 13.0732 66.042 15.2756 66.042 17.76H68.042ZM69.3568 12.1645C70.2268 10.5936 71.4246 9.39803 72.9618 8.55737L72.0022 6.80263C70.1261 7.82863 68.6572 9.2997 67.6072 11.1955L69.3568 12.1645ZM72.9561 8.56047C74.5247 7.71585 76.3445 7.28 78.442 7.28V5.28C76.0596 5.28 73.906 5.77748 72.0079 6.79953L72.9561 8.56047ZM78.442 7.28C80.5157 7.28 82.3105 7.70371 83.8529 8.52311L84.7912 6.75688C82.9203 5.76296 80.795 5.28 78.442 5.28V7.28ZM83.8529 8.52311C85.3882 9.33877 86.5829 10.508 87.4505 12.0503L89.1936 11.0697C88.1411 9.19866 86.6692 7.75456 84.7912 6.75688L83.8529 8.52311ZM87.4538 12.0561C88.3127 13.5592 88.762 15.3683 88.762 17.52H90.762C90.762 15.085 90.2514 12.9208 89.1903 11.0639L87.4538 12.0561ZM82.762 15.56C82.762 14.3537 82.3464 13.3052 81.4422 12.5518L80.1618 14.0882C80.5377 14.4014 80.762 14.8463 80.762 15.56H82.762ZM81.4605 12.5674C80.6146 11.8272 79.5709 11.48 78.402 11.48V13.48C79.1532 13.48 79.7095 13.6928 80.1435 14.0726L81.4605 12.5674ZM78.402 11.48C77.2469 11.48 76.2131 11.806 75.3859 12.5254L76.6982 14.0346C77.0976 13.6873 77.6372 13.48 78.402 13.48V11.48ZM75.4052 12.509C74.5627 13.205 74.075 14.2037 73.8586 15.3788L75.8255 15.7412C75.9824 14.8896 76.2947 14.3683 76.6789 14.051L75.4052 12.509ZM74.842 16.56H81.762V14.56H74.842V16.56ZM100.81 10.52H99.8105V13.7397L101.635 11.0865L100.81 10.52ZM108.05 6.36H109.05V5.36H108.05V6.36ZM108.05 14.72V15.72H109.05V14.72H108.05ZM102.05 15.72L102.678 16.4984L102.678 16.4984L102.05 15.72ZM100.81 29V30H101.81V29H100.81ZM92.9705 29H91.9705V30H92.9705V29ZM92.9705 6.56V5.56H91.9705V6.56H92.9705ZM100.81 6.56H101.81V5.56H100.81V6.56ZM101.635 11.0865C102.438 9.91759 103.401 9.00719 104.522 8.3391L103.499 6.6209C102.113 7.44614 100.943 8.5624 99.9864 9.95347L101.635 11.0865ZM104.522 8.3391C105.623 7.68338 106.793 7.36 108.05 7.36V5.36C106.428 5.36 104.905 5.78329 103.499 6.6209L104.522 8.3391ZM107.05 6.36V14.72H109.05V6.36H107.05ZM108.05 13.72H105.85V15.72H108.05V13.72ZM105.85 13.72C104.045 13.72 102.507 14.0673 101.423 14.9416L102.678 16.4984C103.247 16.0394 104.243 15.72 105.85 15.72V13.72ZM101.423 14.9416C100.254 15.8838 99.8105 17.414 99.8105 19.2H101.81C101.81 17.6794 102.193 16.8896 102.678 16.4984L101.423 14.9416ZM99.8105 19.2V29H101.81V19.2H99.8105ZM100.81 28H92.9705V30H100.81V28ZM93.9705 29V6.56H91.9705V29H93.9705ZM92.9705 7.56H100.81V5.56H92.9705V7.56ZM99.8105 6.56V10.52H101.81V6.56H99.8105ZM135.021 6.56L135.94 6.95499L136.54 5.56H135.021V6.56ZM120.781 39.68V40.68H121.44L121.7 40.075L120.781 39.68ZM112.261 39.68L111.353 39.2617L110.7 40.68H112.261V39.68ZM117.621 28.04L118.529 28.4583L118.715 28.0547L118.54 27.6463L117.621 28.04ZM108.421 6.56V5.56H106.905L107.502 6.95371L108.421 6.56ZM117.141 6.56L118.079 6.21211L117.837 5.56H117.141V6.56ZM121.861 19.28L120.924 19.6279L121.877 22.1981L122.802 19.6175L121.861 19.28ZM126.421 6.56V5.56H125.717L125.48 6.22254L126.421 6.56ZM134.102 6.16501L119.862 39.285L121.7 40.075L135.94 6.95499L134.102 6.16501ZM120.781 38.68H112.261V40.68H120.781V38.68ZM113.169 40.0983L118.529 28.4583L116.713 27.6217L111.353 39.2617L113.169 40.0983ZM118.54 27.6463L109.34 6.16629L107.502 6.95371L116.702 28.4337L118.54 27.6463ZM108.421 7.56H117.141V5.56H108.421V7.56ZM116.204 6.90789L120.924 19.6279L122.799 18.9321L118.079 6.21211L116.204 6.90789ZM122.802 19.6175L127.362 6.89746L125.48 6.22254L120.92 18.9425L122.802 19.6175ZM126.421 7.56H135.021V5.56H126.421V7.56Z" fill="black" mask="url(#path-1-outside-1_1_3)"/>
</svg>
