<svg width="144" height="48" viewBox="0 0 144 48" fill="none" xmlns="http://www.w3.org/2000/svg">
<g filter="url(#filter0_d_1_3)">
<mask id="path-1-outside-1_1_3" maskUnits="userSpaceOnUse" x="3" y="-1" width="138" height="42" fill="black">
<rect fill="white" x="3" y="-1" width="138" height="42"/>
<path d="M24.728 33.72L21.608 29.04C20.728 29.2 19.8346 29.28 18.928 29.28C16.288 29.28 13.8613 28.6667 11.648 27.44C9.43464 26.1867 7.67464 24.4667 6.36797 22.28C5.08797 20.0667 4.44797 17.5733 4.44797 14.8C4.44797 12.0267 5.08797 9.54667 6.36797 7.36C7.67464 5.14667 9.43464 3.42667 11.648 2.2C13.8613 0.973333 16.288 0.359999 18.928 0.359999C21.5946 0.359999 24.0213 0.973333 26.208 2.2C28.4213 3.42667 30.168 5.14667 31.448 7.36C32.728 9.54667 33.368 12.0267 33.368 14.8C33.368 17.12 32.9013 19.2667 31.968 21.24C31.0346 23.1867 29.7546 24.8133 28.128 26.12L34.088 33.72H24.728ZM12.448 14.8C12.448 17.0133 13.0213 18.7733 14.168 20.08C15.3146 21.36 16.9013 22 18.928 22C20.928 22 22.5013 21.3467 23.648 20.04C24.8213 18.7333 25.408 16.9867 25.408 14.8C25.408 12.56 24.8213 10.8 23.648 9.52C22.5013 8.21333 20.928 7.56 18.928 7.56C16.9013 7.56 15.3146 8.21333 14.168 9.52C13.0213 10.8 12.448 12.56 12.448 14.8ZM70.0914 6.56L64.3714 29H55.5714L52.4514 15.4L49.2114 29H40.4514L34.7714 6.56H42.5714L45.0914 21.44L48.4114 6.56H56.8114L60.2514 21.48L62.7314 6.56H70.0914ZM93.762 17.52C93.762 18.1333 93.722 18.7467 93.642 19.36H78.802C78.882 20.5867 79.2154 21.5067 79.802 22.12C80.4154 22.7067 81.1887 23 82.122 23C83.4287 23 84.362 22.4133 84.922 21.24H93.282C92.9354 22.7867 92.2554 24.1733 91.242 25.4C90.2554 26.6 89.002 27.5467 87.482 28.24C85.962 28.9333 84.282 29.28 82.442 29.28C80.2287 29.28 78.2554 28.8133 76.522 27.88C74.8154 26.9467 73.4687 25.6133 72.482 23.88C71.522 22.1467 71.042 20.1067 71.042 17.76C71.042 15.4133 71.522 13.3867 72.482 11.68C73.442 9.94667 74.7754 8.61333 76.482 7.68C78.2154 6.74667 80.202 6.28 82.442 6.28C84.6554 6.28 86.6154 6.73333 88.322 7.64C90.0287 8.54667 91.362 9.85333 92.322 11.56C93.282 13.24 93.762 15.2267 93.762 17.52ZM85.762 15.56C85.762 14.6 85.442 13.8533 84.802 13.32C84.162 12.76 83.362 12.48 82.402 12.48C81.442 12.48 80.6554 12.7467 80.042 13.28C79.4287 13.7867 79.0287 14.5467 78.842 15.56H85.762ZM104.81 10.52C105.69 9.24 106.757 8.22666 108.01 7.48C109.264 6.73333 110.61 6.36 112.05 6.36V14.72H109.85C108.144 14.72 106.877 15.0533 106.05 15.72C105.224 16.3867 104.81 17.5467 104.81 19.2V29H96.9705V6.56H104.81V10.52ZM139.021 6.56L124.781 39.68H116.261L121.621 28.04L112.421 6.56H121.141L125.861 19.28L130.421 6.56H139.021Z"/>
</mask>
<path d="M24.728 33.72L21.608 29.04C20.728 29.2 19.8346 29.28 18.928 29.28C16.288 29.28 13.8613 28.6667 11.648 27.44C9.43464 26.1867 7.67464 24.4667 6.36797 22.28C5.08797 20.0667 4.44797 17.5733 4.44797 14.8C4.44797 12.0267 5.08797 9.54667 6.36797 7.36C7.67464 5.14667 9.43464 3.42667 11.648 2.2C13.8613 0.973333 16.288 0.359999 18.928 0.359999C21.5946 0.359999 24.0213 0.973333 26.208 2.2C28.4213 3.42667 30.168 5.14667 31.448 7.36C32.728 9.54667 33.368 12.0267 33.368 14.8C33.368 17.12 32.9013 19.2667 31.968 21.24C31.0346 23.1867 29.7546 24.8133 28.128 26.12L34.088 33.72H24.728ZM12.448 14.8C12.448 17.0133 13.0213 18.7733 14.168 20.08C15.3146 21.36 16.9013 22 18.928 22C20.928 22 22.5013 21.3467 23.648 20.04C24.8213 18.7333 25.408 16.9867 25.408 14.8C25.408 12.56 24.8213 10.8 23.648 9.52C22.5013 8.21333 20.928 7.56 18.928 7.56C16.9013 7.56 15.3146 8.21333 14.168 9.52C13.0213 10.8 12.448 12.56 12.448 14.8ZM70.0914 6.56L64.3714 29H55.5714L52.4514 15.4L49.2114 29H40.4514L34.7714 6.56H42.5714L45.0914 21.44L48.4114 6.56H56.8114L60.2514 21.48L62.7314 6.56H70.0914ZM93.762 17.52C93.762 18.1333 93.722 18.7467 93.642 19.36H78.802C78.882 20.5867 79.2154 21.5067 79.802 22.12C80.4154 22.7067 81.1887 23 82.122 23C83.4287 23 84.362 22.4133 84.922 21.24H93.282C92.9354 22.7867 92.2554 24.1733 91.242 25.4C90.2554 26.6 89.002 27.5467 87.482 28.24C85.962 28.9333 84.282 29.28 82.442 29.28C80.2287 29.28 78.2554 28.8133 76.522 27.88C74.8154 26.9467 73.4687 25.6133 72.482 23.88C71.522 22.1467 71.042 20.1067 71.042 17.76C71.042 15.4133 71.522 13.3867 72.482 11.68C73.442 9.94667 74.7754 8.61333 76.482 7.68C78.2154 6.74667 80.202 6.28 82.442 6.28C84.6554 6.28 86.6154 6.73333 88.322 7.64C90.0287 8.54667 91.362 9.85333 92.322 11.56C93.282 13.24 93.762 15.2267 93.762 17.52ZM85.762 15.56C85.762 14.6 85.442 13.8533 84.802 13.32C84.162 12.76 83.362 12.48 82.402 12.48C81.442 12.48 80.6554 12.7467 80.042 13.28C79.4287 13.7867 79.0287 14.5467 78.842 15.56H85.762ZM104.81 10.52C105.69 9.24 106.757 8.22666 108.01 7.48C109.264 6.73333 110.61 6.36 112.05 6.36V14.72H109.85C108.144 14.72 106.877 15.0533 106.05 15.72C105.224 16.3867 104.81 17.5467 104.81 19.2V29H96.9705V6.56H104.81V10.52ZM139.021 6.56L124.781 39.68H116.261L121.621 28.04L112.421 6.56H121.141L125.861 19.28L130.421 6.56H139.021Z" fill="white"/>
<path d="M24.728 33.72L23.8959 34.2747L24.1928 34.72H24.728V33.72ZM21.608 29.04L22.44 28.4853L22.0755 27.9386L21.4291 28.0561L21.608 29.04ZM11.648 27.44L11.1552 28.3102L11.1632 28.3147L11.648 27.44ZM6.36797 22.28L5.5023 22.7806L5.50589 22.7868L5.50955 22.793L6.36797 22.28ZM6.36797 7.36L5.50683 6.85162L5.50495 6.85482L6.36797 7.36ZM26.208 2.2L25.7187 3.07215L25.7232 3.07465L26.208 2.2ZM31.448 7.36L30.5823 7.86063L30.585 7.86518L31.448 7.36ZM31.968 21.24L32.8697 21.6723L32.872 21.6676L31.968 21.24ZM28.128 26.12L27.5017 25.3404L26.7312 25.9593L27.3411 26.7371L28.128 26.12ZM34.088 33.72V34.72H36.143L34.8749 33.1029L34.088 33.72ZM14.168 20.08L13.4163 20.7396L13.4231 20.7472L14.168 20.08ZM23.648 20.04L22.9039 19.3718L22.8963 19.3804L23.648 20.04ZM23.648 9.52L22.8963 10.1796L22.9035 10.1877L22.9108 10.1957L23.648 9.52ZM14.168 9.52L14.9128 10.1873L14.9196 10.1796L14.168 9.52ZM25.56 33.1653L22.44 28.4853L20.7759 29.5947L23.8959 34.2747L25.56 33.1653ZM21.4291 28.0561C20.6089 28.2053 19.7755 28.28 18.928 28.28V30.28C19.8938 30.28 20.847 30.1947 21.7869 30.0239L21.4291 28.0561ZM18.928 28.28C16.4499 28.28 14.1912 27.7062 12.1327 26.5653L11.1632 28.3147C13.5314 29.6271 16.126 30.28 18.928 30.28V28.28ZM12.1407 26.5698C10.0784 25.402 8.44431 23.8052 7.22638 21.767L5.50955 22.793C6.90496 25.1281 8.79087 26.9713 11.1552 28.3102L12.1407 26.5698ZM7.23363 21.7794C6.04901 19.731 5.44797 17.4129 5.44797 14.8H3.44797C3.44797 17.7338 4.12692 20.4024 5.5023 22.7806L7.23363 21.7794ZM5.44797 14.8C5.44797 12.1869 6.04904 9.88434 7.23098 7.86518L5.50495 6.85482C4.1269 9.20899 3.44797 11.8664 3.44797 14.8H5.44797ZM7.2291 7.86838C8.44668 5.80596 10.0778 4.21353 12.1327 3.07465L11.1632 1.32535C8.79148 2.6398 6.9026 4.48737 5.50684 6.85162L7.2291 7.86838ZM12.1327 3.07465C14.1912 1.93381 16.4499 1.36 18.928 1.36V-0.640001C16.126 -0.640001 13.5314 0.0128504 11.1632 1.32535L12.1327 3.07465ZM18.928 1.36C21.4346 1.36 23.691 1.93465 25.7187 3.07214L26.6972 1.32786C24.3516 0.0120134 21.7547 -0.640001 18.928 -0.640001V1.36ZM25.7232 3.07465C27.7763 4.21251 29.392 5.80246 30.5823 7.86062L32.3136 6.85937C30.9439 4.49087 29.0663 2.64082 26.6927 1.32535L25.7232 3.07465ZM30.585 7.86518C31.7669 9.88434 32.368 12.1869 32.368 14.8H34.368C34.368 11.8664 33.689 9.20899 32.311 6.85482L30.585 7.86518ZM32.368 14.8C32.368 16.9816 31.9302 18.9811 31.064 20.8124L32.872 21.6676C33.8724 19.5522 34.368 17.2584 34.368 14.8H32.368ZM31.0663 20.8077C30.1953 22.6242 29.0076 24.1307 27.5017 25.3404L28.7542 26.8996C30.5016 25.496 31.874 23.7491 32.8697 21.6723L31.0663 20.8077ZM27.3411 26.7371L33.3011 34.3371L34.8749 33.1029L28.9149 25.5029L27.3411 26.7371ZM34.088 32.72H24.728V34.72H34.088V32.72ZM11.448 14.8C11.448 17.1878 12.0697 19.205 13.4163 20.7396L14.9196 19.4204C13.973 18.3417 13.448 16.8389 13.448 14.8H11.448ZM13.4231 20.7472C14.7938 22.2773 16.6729 23 18.928 23V21C17.1297 21 15.8355 20.4427 14.9128 19.4128L13.4231 20.7472ZM18.928 23C21.1679 23 23.0336 22.2562 24.3996 20.6996L22.8963 19.3804C21.9691 20.4371 20.6881 21 18.928 21V23ZM24.392 20.7081C25.7678 19.176 26.408 17.1704 26.408 14.8H24.408C24.408 16.8029 23.8748 18.2907 22.9039 19.3719L24.392 20.7081ZM26.408 14.8C26.408 12.3847 25.7721 10.3573 24.3851 8.84427L22.9108 10.1957C23.8705 11.2427 24.408 12.7353 24.408 14.8H26.408ZM24.3996 8.86041C23.0336 7.30376 21.1679 6.56 18.928 6.56V8.56C20.6881 8.56 21.9691 9.12291 22.8963 10.1796L24.3996 8.86041ZM18.928 6.56C16.6661 6.56 14.785 7.30072 13.4163 8.86041L14.9196 10.1796C15.8442 9.12594 17.1365 8.56 18.928 8.56V6.56ZM13.4231 8.85275C12.0674 10.3661 11.448 12.3903 11.448 14.8H13.448C13.448 12.7297 13.9752 11.2339 14.9128 10.1872L13.4231 8.85275ZM70.0914 6.56L71.0604 6.807L71.3783 5.56H70.0914V6.56ZM64.3714 29V30H65.1485L65.3404 29.247L64.3714 29ZM55.5714 29L54.5967 29.2236L54.7748 30H55.5714V29ZM52.4514 15.4L53.4261 15.1764L51.4786 15.1683L52.4514 15.4ZM49.2114 29V30H50.0012L50.1842 29.2317L49.2114 29ZM40.4514 29L39.482 29.2454L39.673 30H40.4514V29ZM34.7714 6.56V5.56H33.4867L33.802 6.80538L34.7714 6.56ZM42.5714 6.56L43.5574 6.39302L43.4163 5.56H42.5714V6.56ZM45.0914 21.44L44.1054 21.607L46.0674 21.6578L45.0914 21.44ZM48.4114 6.56V5.56H47.6099L47.4354 6.34223L48.4114 6.56ZM56.8114 6.56L57.7858 6.33533L57.6071 5.56H56.8114V6.56ZM60.2514 21.48L59.277 21.7047L61.2379 21.644L60.2514 21.48ZM62.7314 6.56V5.56H61.8839L61.7449 6.39603L62.7314 6.56ZM69.1224 6.31299L63.4024 28.753L65.3404 29.247L71.0604 6.807L69.1224 6.31299ZM64.3714 28H55.5714V30H64.3714V28ZM56.5461 28.7764L53.4261 15.1764L51.4767 15.6236L54.5967 29.2236L56.5461 28.7764ZM51.4786 15.1683L48.2386 28.7683L50.1842 29.2317L53.4242 15.6317L51.4786 15.1683ZM49.2114 28H40.4514V30H49.2114V28ZM41.4208 28.7546L35.7408 6.31462L33.802 6.80538L39.482 29.2454L41.4208 28.7546ZM34.7714 7.56H42.5714V5.56H34.7714V7.56ZM41.5854 6.72698L44.1054 21.607L46.0774 21.273L43.5574 6.39302L41.5854 6.72698ZM46.0674 21.6578L49.3874 6.77776L47.4354 6.34223L44.1154 21.2222L46.0674 21.6578ZM48.4114 7.56H56.8114V5.56H48.4114V7.56ZM55.837 6.78467L59.277 21.7047L61.2258 21.2553L57.7858 6.33533L55.837 6.78467ZM61.2379 21.644L63.7179 6.72397L61.7449 6.39603L59.2649 21.316L61.2379 21.644ZM62.7314 7.56H70.0914V5.56H62.7314V7.56ZM93.642 19.36V20.36H94.5201L94.6336 19.4893L93.642 19.36ZM78.802 19.36V18.36H77.7347L77.8042 19.4251L78.802 19.36ZM79.802 22.12L79.0794 22.8112L79.0948 22.8273L79.1108 22.8426L79.802 22.12ZM84.922 21.24V20.24H84.2912L84.0196 20.8093L84.922 21.24ZM93.282 21.24L94.2578 21.4587L94.531 20.24H93.282V21.24ZM91.242 25.4L90.4711 24.7631L90.4696 24.7649L91.242 25.4ZM87.482 28.24L87.897 29.1498L87.897 29.1498L87.482 28.24ZM76.522 27.88L76.0422 28.7574L76.0479 28.7605L76.522 27.88ZM72.482 23.88L71.6072 24.3645L71.613 24.3747L72.482 23.88ZM72.482 11.68L73.3536 12.1703L73.3568 12.1645L72.482 11.68ZM76.482 7.68L76.0079 6.79951L76.0022 6.80263L76.482 7.68ZM88.322 7.64L88.7912 6.75688L88.7912 6.75688L88.322 7.64ZM92.322 11.56L91.4504 12.0503L91.4538 12.0561L92.322 11.56ZM85.762 15.56V16.56H86.762V15.56H85.762ZM84.802 13.32L84.1435 14.0726L84.1526 14.0805L84.1618 14.0882L84.802 13.32ZM80.042 13.28L80.6789 14.051L80.6887 14.0429L80.6982 14.0346L80.042 13.28ZM78.842 15.56L77.8586 15.3788L77.641 16.56H78.842V15.56ZM92.762 17.52C92.762 18.0897 92.7249 18.6599 92.6504 19.2307L94.6336 19.4893C94.7192 18.8335 94.762 18.1769 94.762 17.52H92.762ZM93.642 18.36H78.802V20.36H93.642V18.36ZM77.8042 19.4251C77.8927 20.7836 78.271 21.9661 79.0794 22.8112L80.5247 21.4288C80.1597 21.0473 79.8713 20.3898 79.7999 19.2949L77.8042 19.4251ZM79.1108 22.8426C79.9295 23.6258 80.9592 24 82.122 24V22C81.4182 22 80.9012 21.7876 80.4933 21.3974L79.1108 22.8426ZM82.122 24C82.9283 24 83.6806 23.8174 84.3342 23.4066C84.9881 22.9956 85.4778 22.3972 85.8245 21.6707L84.0196 20.8093C83.8063 21.2561 83.5493 21.5377 83.2699 21.7134C82.9901 21.8892 82.6224 22 82.122 22V24ZM84.922 22.24H93.282V20.24H84.922V22.24ZM92.3062 21.0213C91.9941 22.4138 91.3846 23.6573 90.4711 24.7631L92.013 26.0369C93.1262 24.6894 93.8766 23.1596 94.2578 21.4587L92.3062 21.0213ZM90.4696 24.7649C89.5868 25.8386 88.4592 26.6952 87.067 27.3302L87.897 29.1498C89.5449 28.3982 90.9239 27.3614 92.0145 26.0351L90.4696 24.7649ZM87.067 27.3302C85.69 27.9583 84.1535 28.28 82.442 28.28V30.28C84.4106 30.28 86.2341 29.9084 87.897 29.1498L87.067 27.3302ZM82.442 28.28C80.3733 28.28 78.5664 27.8451 76.9961 26.9995L76.0479 28.7605C77.9443 29.7816 80.0841 30.28 82.442 30.28V28.28ZM77.0018 27.0026C75.4622 26.1606 74.2485 24.9617 73.3511 23.3853L71.613 24.3747C72.6889 26.2649 74.1685 27.7327 76.0422 28.7574L77.0018 27.0026ZM73.3568 23.3955C72.4929 21.8356 72.042 19.9685 72.042 17.76H70.042C70.042 20.2449 70.5512 22.4577 71.6072 24.3645L73.3568 23.3955ZM72.042 17.76C72.042 15.551 72.4931 13.7001 73.3536 12.1703L71.6105 11.1897C70.551 13.0732 70.042 15.2756 70.042 17.76H72.042ZM73.3568 12.1645C74.2268 10.5936 75.4246 9.39803 76.9618 8.55737L76.0022 6.80263C74.1261 7.82863 72.6572 9.2997 71.6072 11.1955L73.3568 12.1645ZM76.9561 8.56047C78.5247 7.71585 80.3445 7.28 82.442 7.28V5.28C80.0596 5.28 77.906 5.77748 76.0079 6.79953L76.9561 8.56047ZM82.442 7.28C84.5157 7.28 86.3105 7.70371 87.8529 8.52311L88.7912 6.75688C86.9203 5.76296 84.795 5.28 82.442 5.28V7.28ZM87.8529 8.52311C89.3882 9.33877 90.5829 10.508 91.4505 12.0503L93.1936 11.0697C92.1411 9.19866 90.6692 7.75456 88.7912 6.75688L87.8529 8.52311ZM91.4538 12.0561C92.3127 13.5592 92.762 15.3683 92.762 17.52H94.762C94.762 15.085 94.2514 12.9208 93.1903 11.0639L91.4538 12.0561ZM86.762 15.56C86.762 14.3537 86.3464 13.3052 85.4422 12.5518L84.1618 14.0882C84.5377 14.4014 84.762 14.8463 84.762 15.56H86.762ZM85.4605 12.5674C84.6146 11.8272 83.5709 11.48 82.402 11.48V13.48C83.1532 13.48 83.7095 13.6928 84.1435 14.0726L85.4605 12.5674ZM82.402 11.48C81.2469 11.48 80.2131 11.806 79.3859 12.5254L80.6982 14.0346C81.0976 13.6873 81.6372 13.48 82.402 13.48V11.48ZM79.4052 12.509C78.5627 13.205 78.075 14.2037 77.8586 15.3788L79.8255 15.7412C79.9824 14.8896 80.2947 14.3683 80.6789 14.051L79.4052 12.509ZM78.842 16.56H85.762V14.56H78.842V16.56ZM104.81 10.52H103.81V13.7397L105.635 11.0865L104.81 10.52ZM112.05 6.36H113.05V5.36H112.05V6.36ZM112.05 14.72V15.72H113.05V14.72H112.05ZM106.05 15.72L106.678 16.4984L106.678 16.4984L106.05 15.72ZM104.81 29V30H105.81V29H104.81ZM96.9705 29H95.9705V30H96.9705V29ZM96.9705 6.56V5.56H95.9705V6.56H96.9705ZM104.81 6.56H105.81V5.56H104.81V6.56ZM105.635 11.0865C106.438 9.91759 107.401 9.00719 108.522 8.3391L107.499 6.6209C106.113 7.44614 104.943 8.5624 103.986 9.95347L105.635 11.0865ZM108.522 8.3391C109.623 7.68338 110.793 7.36 112.05 7.36V5.36C110.428 5.36 108.905 5.78329 107.499 6.6209L108.522 8.3391ZM111.05 6.36V14.72H113.05V6.36H111.05ZM112.05 13.72H109.85V15.72H112.05V13.72ZM109.85 13.72C108.045 13.72 106.507 14.0673 105.423 14.9416L106.678 16.4984C107.247 16.0394 108.243 15.72 109.85 15.72V13.72ZM105.423 14.9416C104.254 15.8838 103.81 17.414 103.81 19.2H105.81C105.81 17.6794 106.193 16.8896 106.678 16.4984L105.423 14.9416ZM103.81 19.2V29H105.81V19.2H103.81ZM104.81 28H96.9705V30H104.81V28ZM97.9705 29V6.56H95.9705V29H97.9705ZM96.9705 7.56H104.81V5.56H96.9705V7.56ZM103.81 6.56V10.52H105.81V6.56H103.81ZM139.021 6.56L139.94 6.95499L140.54 5.56H139.021V6.56ZM124.781 39.68V40.68H125.44L125.7 40.075L124.781 39.68ZM116.261 39.68L115.353 39.2617L114.7 40.68H116.261V39.68ZM121.621 28.04L122.529 28.4583L122.715 28.0547L122.54 27.6463L121.621 28.04ZM112.421 6.56V5.56H110.905L111.502 6.95371L112.421 6.56ZM121.141 6.56L122.079 6.21211L121.837 5.56H121.141V6.56ZM125.861 19.28L124.924 19.6279L125.877 22.1981L126.802 19.6175L125.861 19.28ZM130.421 6.56V5.56H129.717L129.48 6.22254L130.421 6.56ZM138.102 6.16501L123.862 39.285L125.7 40.075L139.94 6.95499L138.102 6.16501ZM124.781 38.68H116.261V40.68H124.781V38.68ZM117.169 40.0983L122.529 28.4583L120.713 27.6217L115.353 39.2617L117.169 40.0983ZM122.54 27.6463L113.34 6.16629L111.502 6.95371L120.702 28.4337L122.54 27.6463ZM112.421 7.56H121.141V5.56H112.421V7.56ZM120.204 6.90789L124.924 19.6279L126.799 18.9321L122.079 6.21211L120.204 6.90789ZM126.802 19.6175L131.362 6.89746L129.48 6.22254L124.92 18.9425L126.802 19.6175ZM130.421 7.56H139.021V5.56H130.421V7.56Z" fill="black" mask="url(#path-1-outside-1_1_3)"/>
</g>
<defs>
<filter id="filter0_d_1_3" x="0.447968" y="0.360001" width="142.573" height="47.32" filterUnits="userSpaceOnUse" color-interpolation-filters="sRGB">
<feFlood flood-opacity="0" result="BackgroundImageFix"/>
<feColorMatrix in="SourceAlpha" type="matrix" values="0 0 0 0 0 0 0 0 0 0 0 0 0 0 0 0 0 0 127 0" result="hardAlpha"/>
<feOffset dy="4"/>
<feGaussianBlur stdDeviation="2"/>
<feComposite in2="hardAlpha" operator="out"/>
<feColorMatrix type="matrix" values="0 0 0 0 0 0 0 0 0 0 0 0 0 0 0 0 0 0 0.25 0"/>
<feBlend mode="normal" in2="BackgroundImageFix" result="effect1_dropShadow_1_3"/>
<feBlend mode="normal" in="SourceGraphic" in2="effect1_dropShadow_1_3" result="shape"/>
</filter>
</defs>
</svg>
