<svg width="216" height="64" viewBox="0 0 216 64" fill="none" xmlns="http://www.w3.org/2000/svg">
<mask id="path-1-outside-1_1_3" maskUnits="userSpaceOnUse" x="-1" y="-1" width="219" height="66" fill="black">
<rect fill="white" x="-1" y="-1" width="219" height="66"/>
<path d="M32.9648 53.552L27.9728 46.064C26.5648 46.32 25.1354 46.448 23.6848 46.448C19.4608 46.448 15.5781 45.4667 12.0368 43.504C8.49542 41.4987 5.67942 38.7467 3.58875 35.248C1.54075 31.7067 0.51675 27.7173 0.51675 23.28C0.51675 18.8427 1.54075 14.8747 3.58875 11.376C5.67942 7.83467 8.49542 5.08267 12.0368 3.12C15.5781 1.15733 19.4608 0.175999 23.6848 0.175999C27.9514 0.175999 31.8341 1.15733 35.3328 3.12C38.8741 5.08267 41.6688 7.83467 43.7168 11.376C45.7648 14.8747 46.7888 18.8427 46.7888 23.28C46.7888 26.992 46.0421 30.4267 44.5488 33.584C43.0554 36.6987 41.0074 39.3013 38.4048 41.392L47.9408 53.552H32.9648ZM13.3168 23.28C13.3168 26.8213 14.2341 29.6373 16.0688 31.728C17.9034 33.776 20.4421 34.8 23.6848 34.8C26.8848 34.8 29.4021 33.7547 31.2368 31.664C33.1141 29.5733 34.0528 26.7787 34.0528 23.28C34.0528 19.696 33.1141 16.88 31.2368 14.832C29.4021 12.7413 26.8848 11.696 23.6848 11.696C20.4421 11.696 17.9034 12.7413 16.0688 14.832C14.2341 16.88 13.3168 19.696 13.3168 23.28ZM105.546 10.096L96.3943 46H82.3143L77.3223 24.24L72.1383 46H58.1223L49.0343 10.096H61.5143L65.5463 33.904L70.8583 10.096H84.2983L89.8023 33.968L93.7703 10.096H105.546ZM143.419 27.632C143.419 28.6133 143.355 29.5947 143.227 30.576H119.483C119.611 32.5387 120.145 34.0107 121.083 34.992C122.065 35.9307 123.302 36.4 124.795 36.4C126.886 36.4 128.379 35.4613 129.275 33.584H142.651C142.097 36.0587 141.009 38.2773 139.387 40.24C137.809 42.16 135.803 43.6747 133.371 44.784C130.939 45.8933 128.251 46.448 125.307 46.448C121.766 46.448 118.609 45.7013 115.835 44.208C113.105 42.7147 110.95 40.5813 109.371 37.808C107.835 35.0347 107.067 31.7707 107.067 28.016C107.067 24.2613 107.835 21.0187 109.371 18.288C110.907 15.5147 113.041 13.3813 115.771 11.888C118.545 10.3947 121.723 9.648 125.307 9.648C128.849 9.648 131.985 10.3733 134.715 11.824C137.446 13.2747 139.579 15.3653 141.115 18.096C142.651 20.784 143.419 23.9627 143.419 27.632ZM130.619 24.496C130.619 22.96 130.107 21.7653 129.083 20.912C128.059 20.016 126.779 19.568 125.243 19.568C123.707 19.568 122.449 19.9947 121.467 20.848C120.486 21.6587 119.846 22.8747 119.547 24.496H130.619ZM161.097 16.432C162.505 14.384 164.211 12.7627 166.217 11.568C168.222 10.3733 170.377 9.776 172.681 9.776V23.152H169.161C166.43 23.152 164.403 23.6853 163.081 24.752C161.758 25.8187 161.097 27.6747 161.097 30.32V46H148.553V10.096H161.097V16.432ZM215.834 10.096L193.05 63.088H179.418L187.994 44.464L173.274 10.096H187.226L194.778 30.448L202.074 10.096H215.834Z"/>
</mask>
<path d="M32.9648 53.552L27.9728 46.064C26.5648 46.32 25.1354 46.448 23.6848 46.448C19.4608 46.448 15.5781 45.4667 12.0368 43.504C8.49542 41.4987 5.67942 38.7467 3.58875 35.248C1.54075 31.7067 0.51675 27.7173 0.51675 23.28C0.51675 18.8427 1.54075 14.8747 3.58875 11.376C5.67942 7.83467 8.49542 5.08267 12.0368 3.12C15.5781 1.15733 19.4608 0.175999 23.6848 0.175999C27.9514 0.175999 31.8341 1.15733 35.3328 3.12C38.8741 5.08267 41.6688 7.83467 43.7168 11.376C45.7648 14.8747 46.7888 18.8427 46.7888 23.28C46.7888 26.992 46.0421 30.4267 44.5488 33.584C43.0554 36.6987 41.0074 39.3013 38.4048 41.392L47.9408 53.552H32.9648ZM13.3168 23.28C13.3168 26.8213 14.2341 29.6373 16.0688 31.728C17.9034 33.776 20.4421 34.8 23.6848 34.8C26.8848 34.8 29.4021 33.7547 31.2368 31.664C33.1141 29.5733 34.0528 26.7787 34.0528 23.28C34.0528 19.696 33.1141 16.88 31.2368 14.832C29.4021 12.7413 26.8848 11.696 23.6848 11.696C20.4421 11.696 17.9034 12.7413 16.0688 14.832C14.2341 16.88 13.3168 19.696 13.3168 23.28ZM105.546 10.096L96.3943 46H82.3143L77.3223 24.24L72.1383 46H58.1223L49.0343 10.096H61.5143L65.5463 33.904L70.8583 10.096H84.2983L89.8023 33.968L93.7703 10.096H105.546ZM143.419 27.632C143.419 28.6133 143.355 29.5947 143.227 30.576H119.483C119.611 32.5387 120.145 34.0107 121.083 34.992C122.065 35.9307 123.302 36.4 124.795 36.4C126.886 36.4 128.379 35.4613 129.275 33.584H142.651C142.097 36.0587 141.009 38.2773 139.387 40.24C137.809 42.16 135.803 43.6747 133.371 44.784C130.939 45.8933 128.251 46.448 125.307 46.448C121.766 46.448 118.609 45.7013 115.835 44.208C113.105 42.7147 110.95 40.5813 109.371 37.808C107.835 35.0347 107.067 31.7707 107.067 28.016C107.067 24.2613 107.835 21.0187 109.371 18.288C110.907 15.5147 113.041 13.3813 115.771 11.888C118.545 10.3947 121.723 9.648 125.307 9.648C128.849 9.648 131.985 10.3733 134.715 11.824C137.446 13.2747 139.579 15.3653 141.115 18.096C142.651 20.784 143.419 23.9627 143.419 27.632ZM130.619 24.496C130.619 22.96 130.107 21.7653 129.083 20.912C128.059 20.016 126.779 19.568 125.243 19.568C123.707 19.568 122.449 19.9947 121.467 20.848C120.486 21.6587 119.846 22.8747 119.547 24.496H130.619ZM161.097 16.432C162.505 14.384 164.211 12.7627 166.217 11.568C168.222 10.3733 170.377 9.776 172.681 9.776V23.152H169.161C166.43 23.152 164.403 23.6853 163.081 24.752C161.758 25.8187 161.097 27.6747 161.097 30.32V46H148.553V10.096H161.097V16.432ZM215.834 10.096L193.05 63.088H179.418L187.994 44.464L173.274 10.096H187.226L194.778 30.448L202.074 10.096H215.834Z" fill="white"/>
<path d="M32.9648 53.552L32.1327 54.1067L32.4296 54.552H32.9648V53.552ZM27.9728 46.064L28.8048 45.5093L28.4403 44.9626L27.7939 45.0801L27.9728 46.064ZM12.0368 43.504L11.544 44.3742L11.552 44.3787L12.0368 43.504ZM3.58875 35.248L2.72309 35.7486L2.72667 35.7548L2.73034 35.761L3.58875 35.248ZM3.58875 11.376L2.72761 10.8676L2.72574 10.8708L3.58875 11.376ZM35.3328 3.12L34.8435 3.99215L34.848 3.99465L35.3328 3.12ZM43.7168 11.376L42.8511 11.8766L42.8537 11.8812L43.7168 11.376ZM44.5488 33.584L45.4505 34.0163L45.4527 34.0116L44.5488 33.584ZM38.4048 41.392L37.7785 40.6124L37.0079 41.2313L37.6179 42.0091L38.4048 41.392ZM47.9408 53.552V54.552H49.9958L48.7276 52.9349L47.9408 53.552ZM16.0688 31.728L15.3171 32.3876L15.3239 32.3952L16.0688 31.728ZM31.2368 31.664L30.4927 30.9958L30.4851 31.0044L31.2368 31.664ZM31.2368 14.832L30.4851 15.4916L30.4923 15.4997L30.4996 15.5077L31.2368 14.832ZM16.0688 14.832L16.8136 15.4993L16.8204 15.4916L16.0688 14.832ZM33.7968 52.9973L28.8048 45.5093L27.1407 46.6187L32.1327 54.1067L33.7968 52.9973ZM27.7939 45.0801C26.4457 45.3253 25.0763 45.448 23.6848 45.448V47.448C25.1946 47.448 26.6838 47.3147 28.1516 47.0479L27.7939 45.0801ZM23.6848 45.448C19.6227 45.448 15.908 44.5062 12.5215 42.6293L11.552 44.3787C15.2482 46.4271 19.2988 47.448 23.6848 47.448V45.448ZM12.5295 42.6338C9.13918 40.714 6.44909 38.0852 4.44717 34.735L2.73034 35.761C4.90975 39.4081 7.85166 42.2833 11.544 44.3742L12.5295 42.6338ZM4.45441 34.7474C2.5018 31.371 1.51675 27.5569 1.51675 23.28H-0.48325C-0.48325 27.8778 0.579705 32.0424 2.72309 35.7486L4.45441 34.7474ZM1.51675 23.28C1.51675 19.0029 2.50182 15.2123 4.45176 11.8812L2.72574 10.8708C0.579682 14.537 -0.48325 18.6824 -0.48325 23.28H1.51675ZM4.44988 11.8844C6.45146 8.49396 9.13857 5.86953 12.5215 3.99465L11.552 2.24535C7.85226 4.2958 4.90738 7.17537 2.72762 10.8676L4.44988 11.8844ZM12.5215 3.99465C15.908 2.11781 19.6227 1.176 23.6848 1.176V-0.824001C19.2988 -0.824001 15.2482 0.19685 11.552 2.24535L12.5215 3.99465ZM23.6848 1.176C27.7913 1.176 31.5038 2.11865 34.8435 3.99214L35.822 2.24786C32.1644 0.196013 28.1115 -0.824001 23.6848 -0.824001V1.176ZM34.848 3.99465C38.2291 5.86851 40.8928 8.49046 42.8511 11.8766L44.5824 10.8754C42.4447 7.17887 39.5191 4.29682 35.8175 2.24535L34.848 3.99465ZM42.8537 11.8812C44.8037 15.2123 45.7888 19.0029 45.7888 23.28H47.7888C47.7888 18.6824 46.7258 14.537 44.5798 10.8708L42.8537 11.8812ZM45.7888 23.28C45.7888 26.8536 45.0709 30.1411 43.6448 33.1564L45.4527 34.0116C47.0132 30.7122 47.7888 27.1304 47.7888 23.28H45.7888ZM43.647 33.1517C42.2161 36.1362 40.2604 38.6187 37.7785 40.6124L39.031 42.1716C41.7544 39.984 43.8948 37.2611 45.4505 34.0163L43.647 33.1517ZM37.6179 42.0091L47.1539 54.1691L48.7276 52.9349L39.1916 40.7749L37.6179 42.0091ZM47.9408 52.552H32.9648V54.552H47.9408V52.552ZM12.3168 23.28C12.3168 26.9958 13.2824 30.069 15.3171 32.3876L16.8204 31.0684C15.1857 29.2057 14.3168 26.6469 14.3168 23.28H12.3168ZM15.3239 32.3952C17.3826 34.6933 20.2136 35.8 23.6848 35.8V33.8C20.6705 33.8 18.4242 32.8587 16.8136 31.0608L15.3239 32.3952ZM23.6848 35.8C27.1246 35.8 29.9343 34.6642 31.9884 32.3236L30.4851 31.0044C28.8698 32.8451 26.6449 33.8 23.6848 33.8V35.8ZM31.9808 32.3321C34.0606 30.016 35.0528 26.9624 35.0528 23.28H33.0528C33.0528 26.5949 32.1675 29.1307 30.4927 30.9959L31.9808 32.3321ZM35.0528 23.28C35.0528 19.5207 34.0649 16.4373 31.9739 14.1563L30.4996 15.5077C32.1633 17.3227 33.0528 19.8713 33.0528 23.28H35.0528ZM31.9884 14.1724C29.9343 11.8318 27.1246 10.696 23.6848 10.696V12.696C26.6449 12.696 28.8698 13.6509 30.4851 15.4916L31.9884 14.1724ZM23.6848 10.696C20.2069 10.696 17.3738 11.8287 15.3171 14.1724L16.8204 15.4916C18.433 13.6539 20.6773 12.696 23.6848 12.696V10.696ZM15.3239 14.1648C13.2802 16.4461 12.3168 19.5263 12.3168 23.28H14.3168C14.3168 19.8657 15.188 17.3139 16.8136 15.4992L15.3239 14.1648ZM105.546 10.096L106.515 10.343L106.833 9.096H105.546V10.096ZM96.3943 46V47H97.1713L97.3633 46.247L96.3943 46ZM82.3143 46L81.3396 46.2236L81.5177 47H82.3143V46ZM77.3223 24.24L78.2969 24.0164L76.3495 24.0083L77.3223 24.24ZM72.1383 46V47H72.928L73.111 46.2317L72.1383 46ZM58.1223 46L57.1528 46.2454L57.3438 47H58.1223V46ZM49.0343 10.096V9.096H47.7496L48.0648 10.3414L49.0343 10.096ZM61.5143 10.096L62.5002 9.92902L62.3591 9.096H61.5143V10.096ZM65.5463 33.904L64.5603 34.071L66.5223 34.1218L65.5463 33.904ZM70.8583 10.096V9.096H70.0568L69.8823 9.87823L70.8583 10.096ZM84.2983 10.096L85.2727 9.87133L85.0939 9.096H84.2983V10.096ZM89.8023 33.968L88.8278 34.1927L90.7887 34.132L89.8023 33.968ZM93.7703 10.096V9.096H92.9228L92.7838 9.93203L93.7703 10.096ZM104.577 9.84899L95.4252 45.753L97.3633 46.247L106.515 10.343L104.577 9.84899ZM96.3943 45H82.3143V47H96.3943V45ZM83.2889 45.7764L78.2969 24.0164L76.3476 24.4636L81.3396 46.2236L83.2889 45.7764ZM76.3495 24.0083L71.1655 45.7683L73.111 46.2317L78.295 24.4717L76.3495 24.0083ZM72.1383 45H58.1223V47H72.1383V45ZM59.0917 45.7546L50.0037 9.85062L48.0648 10.3414L57.1528 46.2454L59.0917 45.7546ZM49.0343 11.096H61.5143V9.096H49.0343V11.096ZM60.5283 10.263L64.5603 34.071L66.5322 33.737L62.5002 9.92902L60.5283 10.263ZM66.5223 34.1218L71.8343 10.3138L69.8823 9.87823L64.5702 33.6862L66.5223 34.1218ZM70.8583 11.096H84.2983V9.096H70.8583V11.096ZM83.3238 10.3207L88.8278 34.1927L90.7767 33.7433L85.2727 9.87133L83.3238 10.3207ZM90.7887 34.132L94.7567 10.26L92.7838 9.93203L88.8158 33.804L90.7887 34.132ZM93.7703 11.096H105.546V9.096H93.7703V11.096ZM143.227 30.576V31.576H144.105L144.219 30.7053L143.227 30.576ZM119.483 30.576V29.576H118.416L118.485 30.6411L119.483 30.576ZM121.083 34.992L120.361 35.6832L120.376 35.6993L120.392 35.7146L121.083 34.992ZM129.275 33.584V32.584H128.644L128.373 33.1533L129.275 33.584ZM142.651 33.584L143.627 33.8027L143.9 32.584H142.651V33.584ZM139.387 40.24L138.616 39.6031L138.615 39.6049L139.387 40.24ZM133.371 44.784L133.786 45.6938L133.786 45.6938L133.371 44.784ZM115.835 44.208L115.355 45.0854L115.361 45.0885L115.835 44.208ZM109.371 37.808L108.496 38.2925L108.502 38.3027L109.371 37.808ZM109.371 18.288L110.243 18.7783L110.246 18.7725L109.371 18.288ZM115.771 11.888L115.297 11.0075L115.291 11.0106L115.771 11.888ZM134.715 11.824L135.184 10.9409L135.184 10.9409L134.715 11.824ZM141.115 18.096L140.244 18.5863L140.247 18.5921L141.115 18.096ZM130.619 24.496V25.496H131.619V24.496H130.619ZM129.083 20.912L128.425 21.6646L128.434 21.6725L128.443 21.6802L129.083 20.912ZM121.467 20.848L122.104 21.619L122.114 21.6109L122.123 21.6026L121.467 20.848ZM119.547 24.496L118.564 24.3148L118.346 25.496H119.547V24.496ZM142.419 27.632C142.419 28.5697 142.358 29.5079 142.236 30.4467L144.219 30.7053C144.352 29.6815 144.419 28.6569 144.419 27.632H142.419ZM143.227 29.576H119.483V31.576H143.227V29.576ZM118.485 30.6411C118.622 32.7356 119.2 34.4701 120.361 35.6832L121.806 34.3008C121.089 33.5513 120.601 32.3418 120.481 30.5109L118.485 30.6411ZM120.392 35.7146C121.579 36.8498 123.072 37.4 124.795 37.4V35.4C123.531 35.4 122.55 35.0116 121.774 34.2694L120.392 35.7146ZM124.795 37.4C125.994 37.4 127.082 37.1294 128.015 36.5426C128.949 35.9556 129.663 35.0932 130.178 34.0147L128.373 33.1533C127.991 33.9521 127.511 34.4977 126.951 34.8494C126.391 35.2012 125.688 35.4 124.795 35.4V37.4ZM129.275 34.584H142.651V32.584H129.275V34.584ZM141.675 33.3653C141.155 35.6858 140.138 37.7613 138.616 39.6031L140.158 40.8769C141.879 38.7934 143.038 36.4316 143.627 33.8027L141.675 33.3653ZM138.615 39.6049C137.14 41.3986 135.26 42.8232 132.956 43.8742L133.786 45.6938C136.346 44.5262 138.477 42.9214 140.16 40.8751L138.615 39.6049ZM132.956 43.8742C130.667 44.9183 128.123 45.448 125.307 45.448V47.448C128.38 47.448 131.211 46.8684 133.786 45.6938L132.956 43.8742ZM125.307 45.448C121.911 45.448 118.92 44.7331 116.309 43.3275L115.361 45.0885C118.298 46.6696 121.621 47.448 125.307 47.448V45.448ZM116.315 43.3306C113.751 41.9286 111.73 39.9297 110.24 37.3133L108.502 38.3027C110.17 41.2329 112.458 43.5007 115.355 45.0854L116.315 43.3306ZM110.246 37.3235C108.806 34.7236 108.067 31.6325 108.067 28.016H106.067C106.067 31.9089 106.864 35.3457 108.496 38.2925L110.246 37.3235ZM108.067 28.016C108.067 24.399 108.806 21.3321 110.243 18.7783L108.5 17.7977C106.864 20.7052 106.067 24.1236 106.067 28.016H108.067ZM110.246 18.7725C111.692 16.1616 113.69 14.166 116.251 12.7654L115.291 11.0106C112.391 12.5966 110.122 14.8677 108.496 17.8035L110.246 18.7725ZM116.245 12.7685C118.854 11.3638 121.866 10.648 125.307 10.648V8.648C121.581 8.648 118.235 9.42548 115.297 11.0075L116.245 12.7685ZM125.307 10.648C128.709 10.648 131.68 11.3437 134.246 12.7071L135.184 10.9409C132.289 9.40296 128.988 8.648 125.307 8.648V10.648ZM134.246 12.7071C136.805 14.0668 138.8 16.02 140.244 18.5863L141.987 17.6057C140.358 14.7107 138.086 12.4826 135.184 10.9409L134.246 12.7071ZM140.247 18.5921C141.682 21.1032 142.419 24.1043 142.419 27.632H144.419C144.419 23.821 143.621 20.4648 141.983 17.5999L140.247 18.5921ZM131.619 24.496C131.619 22.7137 131.012 21.2172 129.723 20.1438L128.443 21.6802C129.203 22.3134 129.619 23.2063 129.619 24.496H131.619ZM129.742 20.1594C128.512 19.0832 126.988 18.568 125.243 18.568V20.568C126.57 20.568 127.607 20.9488 128.425 21.6646L129.742 20.1594ZM125.243 18.568C123.512 18.568 122.006 19.054 120.811 20.0934L122.123 21.6026C122.891 20.9353 123.902 20.568 125.243 20.568V18.568ZM120.83 20.077C119.62 21.077 118.892 22.5317 118.564 24.3148L120.531 24.6772C120.8 23.2176 121.352 22.2403 122.104 21.619L120.83 20.077ZM119.547 25.496H130.619V23.496H119.547V25.496ZM161.097 16.432H160.097V19.6517L161.921 16.9985L161.097 16.432ZM172.681 9.776H173.681V8.776H172.681V9.776ZM172.681 23.152V24.152H173.681V23.152H172.681ZM163.081 24.752L163.709 25.5304L163.709 25.5304L163.081 24.752ZM161.097 46V47H162.097V46H161.097ZM148.553 46H147.553V47H148.553V46ZM148.553 10.096V9.096H147.553V10.096H148.553ZM161.097 10.096H162.097V9.096H161.097V10.096ZM161.921 16.9985C163.252 15.0616 164.855 13.5432 166.729 12.4271L165.705 10.7089C163.568 11.9821 161.757 13.7064 160.273 15.8655L161.921 16.9985ZM166.729 12.4271C168.581 11.3234 170.559 10.776 172.681 10.776V8.776C170.194 8.776 167.863 9.42329 165.705 10.7089L166.729 12.4271ZM171.681 9.776V23.152H173.681V9.776H171.681ZM172.681 22.152H169.161V24.152H172.681V22.152ZM169.161 22.152C166.331 22.152 164.033 22.6993 162.453 23.9736L163.709 25.5304C164.774 24.6714 166.529 24.152 169.161 24.152V22.152ZM162.453 23.9736C160.789 25.3158 160.097 27.542 160.097 30.32H162.097C162.097 27.8074 162.727 26.3216 163.709 25.5304L162.453 23.9736ZM160.097 30.32V46H162.097V30.32H160.097ZM161.097 45H148.553V47H161.097V45ZM149.553 46V10.096H147.553V46H149.553ZM148.553 11.096H161.097V9.096H148.553V11.096ZM160.097 10.096V16.432H162.097V10.096H160.097ZM215.834 10.096L216.752 10.491L217.352 9.096H215.834V10.096ZM193.05 63.088V64.088H193.708L193.968 63.483L193.05 63.088ZM179.418 63.088L178.509 62.6697L177.856 64.088H179.418V63.088ZM187.994 44.464L188.902 44.8823L189.088 44.4787L188.913 44.0703L187.994 44.464ZM173.274 10.096V9.096H171.758L172.355 10.4897L173.274 10.096ZM187.226 10.096L188.163 9.74811L187.921 9.096H187.226V10.096ZM194.778 30.448L193.84 30.7959L194.794 33.3661L195.719 30.7855L194.778 30.448ZM202.074 10.096V9.096H201.37L201.132 9.75854L202.074 10.096ZM214.915 9.70101L192.131 62.693L193.968 63.483L216.752 10.491L214.915 9.70101ZM193.05 62.088H179.418V64.088H193.05V62.088ZM180.326 63.5063L188.902 44.8823L187.085 44.0457L178.509 62.6697L180.326 63.5063ZM188.913 44.0703L174.193 9.70228L172.355 10.4897L187.075 44.8577L188.913 44.0703ZM173.274 11.096H187.226V9.096H173.274V11.096ZM186.288 10.4439L193.84 30.7959L195.715 30.1001L188.163 9.74811L186.288 10.4439ZM195.719 30.7855L203.015 10.4335L201.132 9.75854L193.836 30.1105L195.719 30.7855ZM202.074 11.096H215.834V9.096H202.074V11.096Z" fill="black" mask="url(#path-1-outside-1_1_3)"/>
</svg>
